<?xml version="1.0" standalone="no"?>
<!DOCTYPE svg PUBLIC "-//W3C//DTD SVG 1.1//EN" "http://www.w3.org/Graphics/SVG/1.1/DTD/svg11.dtd">
<svg xmlns="http://www.w3.org/2000/svg">
<metadata>Generated by Fontastic.me</metadata>
<defs>
<font id="icons-font" horiz-adv-x="512">
<font-face font-family="icons-font" units-per-em="512" ascent="480" descent="-32"/>
<missing-glyph horiz-adv-x="512" />

<glyph glyph-name="edit" unicode="&#97;" d="M191 77l-114 114 226 225 113-113z m312 358l-68 68c-6 6-15 9-23 9l0 0c-8 0-16-3-22-9l-46-46 113-113 46 46c6 6 9 14 9 22l0 0c0 8-3 17-9 23z m-503-435l147 34-113 113z"/>
<glyph glyph-name="check" unicode="&#98;" d="M503 385l-46 45c-12 12-32 12-45 0l-217-226-82 82c-12 13-33 13-45 0l-45-45c-13-12-13-33 0-45l150-150c12-13 32-13 45 0l68 68 217 225c6 7 9 15 9 23l0 0c0 8-3 16-9 23z"/>
<glyph glyph-name="lab-mix" unicode="&#99;" d="M260 416c26 0 48 21 48 48 0 27-22 48-48 48-26 0-48-21-48-48 0-27 22-48 48-48z m-144 0c18 0 32 14 32 32 0 18-14 32-32 32-18 0-32-14-32-32 0-18 14-32 32-32z m256-32c18 0 32 14 32 32 0 18-14 32-32 32-18 0-32-14-32-32 0-18 14-32 32-32z m80-356l-128 232c-4 6-10 12-16 16l0 52c18 0 32 13 32 28 0 15-14 28-32 28l-128 0c-18 0-32-13-32-28 0-15 14-28 32-28l0-52c-6-4-12-10-16-16l-128-232c-9-15-2-28 15-28l386 0c17 0 24 13 15 28z m-350 36l35 64 214 0 35-64z"/>
<glyph glyph-name="close" unicode="&#100;" d="M485 389l-91 91-136-136-135 136-91-91 136-135-136-136 91-91 135 136 136-136 91 91-136 136z"/>
<glyph glyph-name="delete" unicode="&#101;" d="M464 416l-112 0 0 32c0 64-32 64-64 64l-96 0c-64 0-64-32-64-64l0-32-112 0c-9 0-16-7-16-16l0-32c0-9 7-16 16-16l448 0c9 0 16 7 16 16l0 32c0 9-7 16-16 16z m-176 0l-96 0 0 32 96 0z m64-99l0-237c0-9-7-16-16-16-9 0-16 7-16 16l0 237 1 3-66 0 1-3 0-237c0-9-7-16-16-16-9 0-16 7-16 16l0 237 1 3-66 0 1-3 0-237c0-9-7-16-16-16-9 0-16 7-16 16l0 237 1 3-65 0 0-304c0-9 7-16 16-16l320 0c9 0 16 7 16 16l0 304-65 0z"/>
<glyph glyph-name="favorite" unicode="&#102;" d="M512 320l-192 0-72 184-56-184-192 0 149-109-54-179 153 107 168-107-69 179z"/>
<glyph glyph-name="dataset" unicode="&#103;" d="M416 442c-37 23-102 38-176 38-74 0-139-15-176-38-20-12-32-26-32-42l0-288c0-16 12-30 32-42 37-23 102-38 176-38 74 0 139 15 176 38 20 12 32 26 32 42l0 288c0 16-12 30-32 42z m0-330c-2-14-66-48-176-48-110 0-174 34-176 48l0 54c37-23 102-38 176-38 74 0 139 15 176 38z m0 96c-2-14-66-48-176-48-110 0-174 34-176 48l0 54c37-23 102-38 176-38 74 0 139 15 176 38z m0 96c-2-14-66-48-176-48-110 0-174 34-176 48l0 54c37-23 102-38 176-38 74 0 139 15 176 38z m-176 48c-110 0-174 34-176 48 2 14 66 48 176 48 110 0 174-34 176-48-2-14-66-48-176-48z"/>
<glyph glyph-name="email" unicode="&#104;" d="M0 416l0-352 512 0 0 352z m438-32l-184-184-184 184z m42-254l-94 94-23-23 105-105-424 0 105 105-23 23-94-94 0 247 200-200 22-22 23 22 203 203z"/>
<glyph glyph-name="folder" unicode="&#105;" d="M0 320l64-288 384 0 64 288z m480 64l-288 0-64 64-96 0 0-96 448 0z"/>
<glyph glyph-name="marketplace" unicode="&#106;" d="M404 104c-25 0-45-17-50-40l-163 0c-3 13-10 24-20 32l20 64 257 0 51 222-406 54-32 22 1 7c0 17-14 31-31 31-17 0-31-14-31-31 0-17 14-31 31-31l6 1 38-25 64-250 19 0-17-54-2 1c-30 0-54-24-54-54 0-29 24-53 54-53 22 0 40 13 49 32l168 0c8-19 26-32 48-32 29 0 52 23 52 52 0 29-23 52-52 52z"/>
<glyph glyph-name="profile" unicode="&#107;" d="M256 512c-141 0-256-115-256-256 0-66 25-125 65-170 47-53 115-86 191-86 77 0 145 34 192 87 40 46 64 104 64 169 0 141-115 256-256 256z m179-390c-17 13-49 23-81 37-39 16-48 22-48 22l-1 37c0 0 15 11 19 46 9-3 19 13 19 22 1 8-1 31-12 28 2 17 4 33 3 41-3 30-32 61-77 61-45 0-74-31-77-61-1-8 1-24 3-41-11 3-13-20-12-28 0-9 10-25 19-22 4-35 19-46 19-46l-1-37c0 0-9-6-48-22-33-14-66-24-82-38-29 37-46 84-46 135 0 124 101 224 224 224 123 0 224-100 224-224 0-50-17-97-45-134z"/>
<glyph glyph-name="help" unicode="&#108;" d="M419 419c-96 95-251 95-347 0-96-96-96-251 0-347 48-48 110-72 173-72l1 0c62 0 125 24 173 72 95 95 95 251 0 347z m-184-371c-27 0-48 21-48 48 0 27 21 48 48 48 26 0 48-21 48-48 0-26-22-48-48-48z m34 168l0-27c0-13-5-18-18-18l-35 0c-13 0-18 5-18 18l0 60c0 15 15 19 29 23 3 1 7 2 10 3 18 7 28 15 28 34 0 6 0 26-31 26-19 0-37-8-48-12-5-3-8-4-11-4-6 0-12 5-13 10l-12 32c-2 3-2 6-2 8 0 24 72 37 96 37 61 0 101-39 101-97 1-63-47-83-76-93z"/>
<glyph glyph-name="incoming" unicode="&#109;" d="M384 320l-64 0 0 160-128 0 0-160-64 0 128-128z m60 32l-28 0 48-128-112 0c0-53-43-96-96-96-53 0-96 43-96 96l-112 0 48 128-28 0-68-160 0-192 512 0 0 192z"/>
<glyph glyph-name="badge" unicode="&#110;" d="M318 217l34-11c8-3 15 2 15 11l0 35c0 9 7 19 15 21l34 11c8 3 11 11 5 18l-20 29c-5 7-5 18 0 26l20 28c6 7 3 15-5 18l-34 11c-8 3-15 12-15 21l0 35c0 9-7 14-15 11l-34-11c-8-2-19 1-24 8l-21 29c-5 7-14 7-19 0l-21-29c-5-7-16-10-24-8l-34 11c-8 3-15-2-15-11l0-35c0-9-7-18-15-21l-34-11c-8-3-11-11-6-18l21-28c5-8 5-19 0-26l-21-29c-5-7-2-15 6-18l34-11c8-2 15-12 15-21l0-35c0-9 7-14 15-11l34 11c8 3 19-1 24-8l21-29c5-7 14-7 19 0l21 29c5 7 16 11 24 8z m-118-65l-9 14-16-6c-6-2-13-3-19-3-27 0-49 18-56 44l-100-105 96 0 0-96 125 134c-8 5-15 11-21 18z m200 62c-2-32-27-57-59-57-6 0-13 1-19 3l-16 6-9-14c-4-4-8-8-12-12l131-140 0 96 96 0z"/>
<glyph glyph-name="grid" unicode="&#111;" d="M112 512l-96 0c-9 0-16-7-16-16l0-96c0-9 7-16 16-16l96 0c9 0 16 7 16 16l0 96c0 9-7 16-16 16z m0-192l-96 0c-9 0-16-7-16-16l0-96c0-9 7-16 16-16l96 0c9 0 16 7 16 16l0 96c0 9-7 16-16 16z m0-192l-96 0c-9 0-16-7-16-16l0-96c0-9 7-16 16-16l96 0c9 0 16 7 16 16l0 96c0 9-7 16-16 16z m192 384l-96 0c-9 0-16-7-16-16l0-96c0-9 7-16 16-16l96 0c9 0 16 7 16 16l0 96c0 9-7 16-16 16z m0-192l-96 0c-9 0-16-7-16-16l0-96c0-9 7-16 16-16l96 0c9 0 16 7 16 16l0 96c0 9-7 16-16 16z m0-192l-96 0c-9 0-16-7-16-16l0-96c0-9 7-16 16-16l96 0c9 0 16 7 16 16l0 96c0 9-7 16-16 16z m192 384l-96 0c-9 0-16-7-16-16l0-96c0-9 7-16 16-16l96 0c9 0 16 7 16 16l0 96c0 9-7 16-16 16z m0-192l-96 0c-9 0-16-7-16-16l0-96c0-9 7-16 16-16l96 0c9 0 16 7 16 16l0 96c0 9-7 16-16 16z m0-192l-96 0c-9 0-16-7-16-16l0-96c0-9 7-16 16-16l96 0c9 0 16 7 16 16l0 96c0 9-7 16-16 16z"/>
<glyph glyph-name="list" unicode="&#112;" d="M112 512l-96 0c-9 0-16-7-16-16l0-96c0-9 7-16 16-16l96 0c9 0 16 7 16 16l0 96c0 9-7 16-16 16z m0-192l-96 0c-9 0-16-7-16-16l0-96c0-9 7-16 16-16l96 0c9 0 16 7 16 16l0 96c0 9-7 16-16 16z m0-192l-96 0c-9 0-16-7-16-16l0-96c0-9 7-16 16-16l96 0c9 0 16 7 16 16l0 96c0 9-7 16-16 16z m384 384l-288 0c-9 0-16-7-16-16l0-96c0-9 7-16 16-16l288 0c9 0 16 7 16 16l0 96c0 9-7 16-16 16z m0-192l-288 0c-9 0-16-7-16-16l0-96c0-9 7-16 16-16l288 0c9 0 16 7 16 16l0 96c0 9-7 16-16 16z m0-192l-288 0c-9 0-16-7-16-16l0-96c0-9 7-16 16-16l288 0c9 0 16 7 16 16l0 96c0 9-7 16-16 16z"/>
<glyph glyph-name="filter" unicode="&#113;" d="M320 64l192 0 0-32-192 0z m0 64l192 0 0-32-192 0z m0 64l192 0 0-32-192 0z m128 160c0 43-29 79-67 91l3 5 0 32-384 0 0-32 160-224 0-192 64 0 0 192 51 71c17-23 45-39 77-39 53 0 96 43 96 96z m-153-29l66 92c31-4 55-31 55-63 0-35-29-64-64-64-25 0-46 15-57 35z"/>
<glyph glyph-name="outcoming" unicode="&#114;" d="M192 224l128 0 0 160 64 0-128 128-128-128 64 0z m252 128l-60 0 0-32 39 0 41-96-112 0c0-53-43-96-96-96-53 0-96 43-96 96l-112 0 41 96 39 0 0 32-60 0-68-160 0-192 512 0 0 192z"/>
<glyph glyph-name="add-botton-3" unicode="&#115;" d="M258 481c-125 0-226-102-226-227 0-124 101-226 226-226 125 0 226 102 226 226 0 125-101 227-226 227z m0-418c-106 0-192 86-192 191 0 106 86 192 192 192 106 0 192-86 192-192 0-105-86-191-192-191z m30 289l-64 0 0-64-64 0 0-64 64 0 0-64 64 0 0 64 64 0 0 64-64 0z"/>
<glyph glyph-name="bar-colums-two-2" unicode="&#116;" d="M0 480l0-480 512 0 0 480z m32-32l448 0 0-64-448 0z m288-416l-288 0 0 320 288 0z m160 0l-128 0 0 320 128 0z"/>
<glyph glyph-name="student-user-1" unicode="&#118;" d="M416 192l-63 0c19 27 31 60 31 96l0 87 96 41-224 96-224-96 0-96 32 0 0 82 64-27 0-87c0-36 12-69 31-96l-63 0c-53 0-96-43-96-96l0-96 512 0 0 96c0 53-43 96-96 96z m-192-160l0 32 32 0 0-32z m32 64l-32 0 0 32 32 0z m0 64c-38 0-96 57-96 128 0 11 1 22 2 32l188 0c1-10 2-21 2-32 0-71-58-128-96-128z m-53 133c-9 0-16-7-16-16 0-8 7-16 16-16 8 0 16 8 16 16 0 9-8 16-16 16z m96 0c-9 0-16-7-16-16 0-8 7-16 16-16 8 0 16 8 16 16 0 9-8 16-16 16z m-267-5l32 0 0-32-32 0z"/>
<glyph glyph-name="straight-big-1-01" unicode="&#119;" d="M480 320l-224 0 0 128-224-196 224-188 0 128 224 0z"/>
<glyph glyph-name="straight-big-2-01" unicode="&#120;" d="M480 252l-224 196 0-128-224 0 0-128 224 0 0-128z"/>
<glyph glyph-name="bar-top" unicode="&#117;" d="M0 480l0-480 512 0 0 480z m480-448l-448 0 0 320 448 0z m0 352l-448 0 0 64 448 0z"/>
<glyph glyph-name="student-user-2" unicode="&#121;" d="M0 256l32 0 0-32-32 0z m498 135l-228 114c-8 4-20 4-28 0l-242-121 0-96 32 0 0 79 64-35 0-108 0 0c0-11 0-22 0-30 0 0 0 0 0-1l0 0 0-17c0-81 96-176 160-176 64 0 160 95 160 176 0 22 1 114 1 157l81 43c8 5 8 11 0 15z m-370-71c34 8 79 12 128 12 49 0 94-4 128-12l0-32c-34 8-79 12-128 12-49 0-94-4-128-12z m256-106c0-17 0-31 0-38 0-66-85-144-128-144-43 0-128 78-128 144l0 24c28 12 51 38 63 72 28-31 87-52 155-52 13 0 26 1 38 2l0-8z m-176-22c-9 0-16-7-16-16 0-9 7-16 16-16 9 0 16 7 16 16 0 9-7 16-16 16z m96 0c-9 0-16-7-16-16 0-9 7-16 16-16 9 0 16 7 16 16 0 9-7 16-16 16z"/>
<glyph glyph-name="arrow-up-1" unicode="&#122;" d="M256 512l-256-288 128 0 0-224 256 0 0 224 128 0z"/>
<glyph glyph-name="logout" unicode="&#65;" d="M257 224c17 0 31 14 31 32l0 192c0 18-14 32-31 32-17 0-31-14-31-32l0-192c0-18 14-32 31-32z m95 202l0-75c39-29 64-75 64-127 0-88-72-160-160-160-88 0-160 72-160 160 0 54 27 101 68 131l0 73c-78-35-132-113-132-204 0-124 100-224 224-224 124 0 224 100 224 224 0 89-52 166-128 202z"/>
<glyph glyph-name="loop-refresh" unicode="&#67;" d="M75 285c18 80 91 138 174 138 32 0 62-8 89-23 7-4 13-9 19-13l-69-67 192-32-32 192-38-41c-6 5-12 10-19 14-41 28-90 43-142 43-121 0-225-87-246-204l-3-20 73 0z m330-75c-18-79-91-137-174-137-32 0-62 8-89 23-7 4-13 9-19 13l69 67-192 32 32-192 38 41c6-5 12-10 19-14 41-28 90-43 142-43 121 0 225 87 246 204l3 20-73 0z"/>
<glyph glyph-name="search" unicode="&#68;" d="M501 79l-88 88c22 35 35 77 35 121 0 124-100 224-224 224-124 0-224-100-224-224 0-124 100-224 224-224 44 0 86 13 121 35l88-88c6-6 16-6 22 0l46 46c6 6 6 16 0 22z m-277 49c-88 0-160 72-160 160 0 88 72 160 160 160 88 0 160-72 160-160 0-88-72-160-160-160z"/>
<glyph glyph-name="move-file-1" unicode="&#69;" d="M352 512l-288 0 0-256 32 0 0 224 224 0 0-160 160 0 0-288-224 0 0-32 256 0 0 352z m0-160l0 115 115-115z m-32-208l-160 112 0-64-160 0 0-96 160 0 0-64z"/>
<glyph glyph-name="back" unicode="&#70;" d="M258 352c-74 0-141-32-188-82l-70 82 0-224 192 0-58 68c37 55 100 92 172 92 99 0 181-68 202-160l4 0c-16 126-123 224-254 224z"/>
<glyph glyph-name="next-1" unicode="&#71;" d="M442 270c-47 50-114 82-188 82-131 0-238-98-254-224l4 0c21 92 103 160 202 160 72 0 135-37 172-92l-58-68 192 0 0 224z"/>
<glyph glyph-name="copy-duplicate-files" unicode="&#66;" d="M375 512l-247 0 0-96-96 0 0-416 352 0 0 96 96 0 0 311z m9-55l41-41-41 0z m-32-425l-288 0 0 352 64 0 0-288 224 0z m96 96l-288 0 0 352 192 0 0-96 96 0z"/>
<glyph glyph-name="bubbles-talk-1" unicode="&#72;" d="M448 352l-32 0 0-32c0-49-47-96-96-96l-147 0-45-45 0-19c0-32 32-64 64-64l160 0 96-96 0 0 0 96c32 0 64 32 64 64l0 128c0 32-32 64-64 64z m-288-96l160 0c32 0 64 32 64 64l0 128c0 32-32 64-64 64l-256 0c-32 0-64-32-64-64l0-128c0-32 32-64 64-64l0-96z"/>
<glyph glyph-name="triangle-big-4-01" unicode="&#73;" d="M128 416l0-320 256 160z"/>
<glyph glyph-name="triangle-big-1-01" unicode="&#74;" d="M96 384l160-256 160 256z"/>
<glyph glyph-name="plus-5" unicode="&#75;" d="M256 256l0 128-32 0 0-128-128 0 0-32 128 0 0-128 32 0 0 128 128 0 0 32z"/>
<glyph glyph-name="gear-setting-2" unicode="&#76;" d="M512 352l-84 95-49-43c-17 14-37 25-58 33l0 75-128 0 0-75c-22-8-41-19-59-33l-48 43-85-95 67-60c-2-12-3-24-3-36 0-12 1-24 3-36l-67-60 85-95 48 43c18-14 37-25 59-33l0-75 128 0 0 75c21 8 41 19 58 33l49-43 84 95 0 1-67 59c2 12 4 24 4 36 0 12-2 24-4 36l67 59z m-255-192c-53 0-96 43-96 96 0 53 43 96 96 96 53 0 96-43 96-96 0-53-43-96-96-96z"/>
<glyph glyph-name="add" unicode="&#78;" d="M384 270l-114 0 0 114-28 0 0-114-114 0 0-28 114 0 0-114 28 0 0 114 114 0z"/>
<glyph glyph-name="add-lookup" unicode="&#79;" d="M256 384c-71 0-128-57-128-128 0-71 57-128 128-128 71 0 128 57 128 128 0 71-57 128-128 128z m0-237c-60 0-108 49-108 109 0 60 48 108 108 108 60 0 109-48 109-108 0-60-49-109-109-109z m17 164l-36 0 0-36-37 0 0-36 37 0 0-36 36 0 0 36 36 0 0 36-36 0z"/>
<glyph glyph-name="edit-properties" unicode="&#77;" d="M351 512l-256 0 0-230 32 0 0 198 192 0 0-160 160 0 0-288-166 0 0-32 198 0 0 352z m1-160l0 115 115-115z m-14-190c0 6-1 12-2 19l37 31-46 51-27-23c-9 7-20 13-31 17l0 40-70 0 0-40c-11-4-22-10-31-17l-27 23-46-51 37-31c-1-7-2-13-2-19 0-7 1-13 2-19l-37-32 46-51 27 23c9-7 20-13 31-17l0-40 70 0 0 40c11 4 22 10 31 17l27-23 46 51-37 32c1 6 2 12 2 19z m-104-51c-29 0-52 23-52 51 0 28 23 50 52 50 29 0 52-22 52-50 0-28-23-51-52-51z"/>
</font>
</defs>
</svg>
