<svg xmlns="http://www.w3.org/2000/svg">
<path class="st0" d="M17,9h-1.1c-0.2-0.9-0.5-1.7-1-2.5l0.8-0.8c0.4-0.4,0.4-1,0-1.4s-1-0.4-1.4,0l-0.8,0.8c-0.7-0.5-1.6-0.9-2.5-1
	V3c0-0.6-0.4-1-1-1S9,2.4,9,3v1.1c-0.9,0.2-1.7,0.5-2.5,1L5.8,4.3C5.4,4,4.7,4,4.3,4.3s-0.4,1,0,1.4l0.8,0.8C4.6,7.3,4.2,8.1,4.1,9
	H3c-0.6,0-1,0.4-1,1s0.4,1,1,1h1.1c0.2,0.9,0.5,1.7,1,2.5l-0.8,0.8c-0.4,0.4-0.4,1,0,1.4C4.5,15.9,4.8,16,5.1,16s0.5-0.1,0.7-0.3
	l0.8-0.8c0.7,0.5,1.6,0.9,2.5,1V17c0,0.6,0.4,1,1,1s1-0.4,1-1v-1.1c0.9-0.2,1.7-0.5,2.5-1l0.8,0.8c0.2,0.2,0.5,0.3,0.7,0.3
	s0.5-0.1,0.7-0.3c0.4-0.4,0.4-1,0-1.4l-0.8-0.8c0.5-0.7,0.9-1.6,1-2.5H17c0.6,0,1-0.4,1-1S17.6,9,17,9z M10,14c-2.2,0-4-1.8-4-4
	c0-2.2,1.8-4,4-4c2.2,0,4,1.8,4,4C14,12.2,12.2,14,10,14z"/>
</svg>
