<?xml version="1.0" encoding="UTF-8"?><svg xmlns="http://www.w3.org/2000/svg" xmlns:xlink="http://www.w3.org/1999/xlink" fill-opacity="1" color-rendering="auto" color-interpolation="auto" text-rendering="auto" stroke="black" stroke-linecap="square" width="842" stroke-miterlimit="10" shape-rendering="auto" stroke-opacity="1" fill="black" stroke-dasharray="none" font-weight="normal" stroke-width="1" height="847" font-family="'Dialog'" font-style="normal" stroke-linejoin="miter" font-size="12px" stroke-dashoffset="0" image-rendering="auto">
  <!--Generated by ySVG 2.5-->
  <defs id="genericDefs"/>
  <g>
    <defs id="defs1">
      <clipPath clipPathUnits="userSpaceOnUse" id="clipPath1">
        <path d="M0 0 L842 0 L842 847 L0 847 L0 0 Z"/>
      </clipPath>
      <clipPath clipPathUnits="userSpaceOnUse" id="clipPath2">
        <path d="M0 0 L0 17 L116 17 L116 0 Z"/>
      </clipPath>
      <script type="text/ecmascript"><![CDATA[      var SVGDocument = null;
      var SVGRoot = null;
      var TrueCoords = null;
      var lastElement = null;
      var initialized = null;
      var tipGroup;
      function Init(evt)
      {
         SVGDocument = evt.target.ownerDocument;
         SVGRoot = SVGDocument.documentElement;
         TrueCoords = SVGRoot.createSVGPoint();
         initialized = evt;
      };
      function GetTrueCoords(evt)
      {
         var newScale = SVGRoot.currentScale;
         var translation = SVGRoot.currentTranslate;
         TrueCoords.x = (evt.clientX - translation.x)/newScale;
         TrueCoords.y = (evt.clientY - translation.y)/newScale;
      };
      function HideTooltip( evt )
      {
         if(initialized == null) {
           Init(evt);
         }
         if(tipGroup != null) {
           tipGroup.setAttributeNS(null, 'visibility', 'hidden');
         }
      };
      function ShowTooltip( evt )
      {
         if(initialized == null) {
           Init(evt);
         }
         GetTrueCoords( evt );
         var tipScale = 1/SVGRoot.currentScale;
         var targetElement = evt.currentTarget;
         if ( lastElement != targetElement )
         {
            var targetId = targetElement.getAttributeNS(null, 'id');
            var tipId = 'tooltip.' + targetId;
            tipGroup = SVGDocument.getElementById(tipId);
            var xPos = TrueCoords.x + (10 * tipScale);
            var yPos = TrueCoords.y + (10 * tipScale);
            tipGroup.setAttributeNS(null, 'transform', 'translate(' + xPos + ',' + yPos + ') scale(' + tipScale + ')');
            tipGroup.setAttributeNS(null, 'visibility', 'visible');
         }
      };
]]></script>
    </defs>
    <g id="y.node.0">
      <g transform="matrix(1,0,0,1,157,290)" fill-opacity="0.5176" fill="rgb(202,236,255)" text-rendering="geometricPrecision" shape-rendering="geometricPrecision" stroke="rgb(202,236,255)" stroke-opacity="0.5176">
        <rect x="-141.2556" y="63.2812" width="265.2556" rx="4" ry="4" height="234.7188" stroke="none"/>
      </g>
      <g>
        <g fill="rgb(153,204,255)" text-rendering="geometricPrecision" shape-rendering="geometricPrecision" transform="matrix(1,0,0,1,157,290)" stroke="rgb(153,204,255)">
          <rect x="-141.2556" width="265.2556" height="24.9531" y="63.2812" stroke="none"/>
        </g>
        <g font-size="18px" stroke-linecap="butt" transform="matrix(1,0,0,1,157,290)" text-rendering="geometricPrecision" font-family="sans-serif" shape-rendering="geometricPrecision" stroke-miterlimit="1.45">
          <text x="49.4639" xml:space="preserve" y="81.9893" stroke="none">DataSet</text>
        </g>
      </g>
      <g stroke-linecap="round" transform="matrix(1,0,0,1,157,290)" stroke-dashoffset="2" fill="rgb(102,102,153)" text-rendering="geometricPrecision" shape-rendering="geometricPrecision" stroke-dasharray="0,4" stroke="rgb(102,102,153)" stroke-miterlimit="1.45">
        <rect x="-141.2556" y="63.2812" fill="none" width="265.2556" rx="4" ry="4" height="234.7188"/>
      </g>
    </g>
    <g id="y.node.11">
      <a target="_blank" xlink:type="simple" xlink:href="https://github.com/Talend/data-prep/tree/master/dataprep-dataset/src/main/java/org/talend/dataprep/dataset/store" xlink:show="new">
        <g fill="rgb(225,225,225)" text-rendering="geometricPrecision" shape-rendering="geometricPrecision" transform="matrix(1,0,0,1,157,290)" stroke="rgb(225,225,225)">
          <rect x="-1" y="154" width="110" rx="4" ry="4" height="76.9219" stroke="none"/>
        </g>
        <g>
          <g fill="rgb(235,235,235)" text-rendering="geometricPrecision" shape-rendering="geometricPrecision" transform="matrix(1,0,0,1,157,290)" stroke="rgb(235,235,235)">
            <rect x="-1" width="110" height="21.4609" y="154" stroke="none"/>
          </g>
          <g font-size="15px" stroke-linecap="butt" transform="matrix(1,0,0,1,157,290)" text-rendering="geometricPrecision" font-family="sans-serif" shape-rendering="geometricPrecision" stroke-miterlimit="1.45">
            <text x="67.0244" xml:space="preserve" y="169.9233" stroke="none">Store</text>
          </g>
        </g>
        <g>
          <g text-rendering="geometricPrecision" stroke-miterlimit="1.45" shape-rendering="geometricPrecision" font-family="sans-serif" transform="matrix(1,0,0,1,157,290)" stroke-linecap="butt">
            <text x="33.8701" xml:space="preserve" y="194.1543" stroke="none">Mongo</text>
            <text x="38.3438" xml:space="preserve" y="208.123" stroke="none">Local</text>
            <text x="37.6084" xml:space="preserve" y="222.0918" stroke="none">HDFS</text>
          </g>
        </g>
        <g text-rendering="geometricPrecision" stroke-miterlimit="1.45" stroke-dasharray="6,2" shape-rendering="geometricPrecision" transform="matrix(1,0,0,1,157,290)" stroke-linecap="butt">
          <rect x="-1" y="154" fill="none" width="110" rx="4" ry="4" height="76.9219"/>
        </g>
      </a>
    </g>
    <g id="y.node.12">
      <a target="_blank" xlink:type="simple" xlink:href="https://github.com/Talend/data-prep/tree/master/dataprep-dataset/src/main/java/org/talend/dataprep/dataset/service/analysis" xlink:show="new">
        <g fill="rgb(225,225,225)" text-rendering="geometricPrecision" shape-rendering="geometricPrecision" transform="matrix(1,0,0,1,157,290)" stroke="rgb(225,225,225)">
          <rect x="-124" y="154" width="107" rx="4" ry="4" height="129" stroke="none"/>
        </g>
        <g>
          <g fill="rgb(235,235,235)" text-rendering="geometricPrecision" shape-rendering="geometricPrecision" transform="matrix(1,0,0,1,157,290)" stroke="rgb(235,235,235)">
            <rect x="-124" width="107" height="21.4609" y="154" stroke="none"/>
          </g>
          <g font-size="15px" stroke-linecap="butt" transform="matrix(1,0,0,1,157,290)" text-rendering="geometricPrecision" font-family="sans-serif" shape-rendering="geometricPrecision" stroke-miterlimit="1.45">
            <text x="-80.8018" xml:space="preserve" y="169.9233" stroke="none">Analysis</text>
          </g>
        </g>
        <g>
          <g text-rendering="geometricPrecision" stroke-miterlimit="1.45" shape-rendering="geometricPrecision" font-family="sans-serif" transform="matrix(1,0,0,1,157,290)" stroke-linecap="butt">
            <text x="-94.3623" xml:space="preserve" y="196.6478" stroke="none">Content</text>
            <text x="-84.8262" xml:space="preserve" y="210.6165" stroke="none">Data</text>
            <text x="-91.9629" xml:space="preserve" y="224.5853" stroke="none">Format</text>
            <text x="-91.9395" xml:space="preserve" y="238.554" stroke="none">Quality</text>
            <text x="-94.623" xml:space="preserve" y="252.5228" stroke="none">Schema</text>
            <text x="-97.9277" xml:space="preserve" y="266.4915" stroke="none">Statistics</text>
          </g>
        </g>
        <g text-rendering="geometricPrecision" stroke-miterlimit="1.45" stroke-dasharray="6,2" shape-rendering="geometricPrecision" transform="matrix(1,0,0,1,157,290)" stroke-linecap="butt">
          <rect x="-124" y="154" fill="none" width="107" rx="4" ry="4" height="129"/>
        </g>
      </a>
    </g>
    <g id="y.node.13">
      <a target="_blank" xlink:type="simple" xlink:href="https://github.com/Talend/data-prep/tree/master/dataprep-dataset/src/main/java/org/talend/dataprep/dataset/service" xlink:show="new">
        <g fill="rgb(225,225,225)" text-rendering="geometricPrecision" shape-rendering="geometricPrecision" transform="matrix(1,0,0,1,157,290)" stroke="rgb(225,225,225)">
          <rect x="-56" y="103.2344" width="88" rx="4" ry="4" height="31.9219" stroke="none"/>
        </g>
        <g>
          <g fill="rgb(235,235,235)" text-rendering="geometricPrecision" shape-rendering="geometricPrecision" transform="matrix(1,0,0,1,157,290)" stroke="rgb(235,235,235)">
            <rect x="-56" width="88" height="21.4609" y="103.2344" stroke="none"/>
          </g>
          <g font-size="15px" stroke-linecap="butt" transform="matrix(1,0,0,1,157,290)" text-rendering="geometricPrecision" font-family="sans-serif" shape-rendering="geometricPrecision" stroke-miterlimit="1.45">
            <text x="-25.437" xml:space="preserve" y="119.1577" stroke="none">Service</text>
          </g>
        </g>
        <g/>
        <g text-rendering="geometricPrecision" stroke-miterlimit="1.45" stroke-dasharray="6,2" shape-rendering="geometricPrecision" transform="matrix(1,0,0,1,157,290)" stroke-linecap="butt">
          <rect x="-56" y="103.2344" fill="none" width="88" rx="4" ry="4" height="31.9219"/>
        </g>
      </a>
    </g>
    <g id="y.node.1">
      <g transform="matrix(1,0,0,1,157,290)" fill-opacity="0.502" fill="rgb(202,236,255)" text-rendering="geometricPrecision" shape-rendering="geometricPrecision" stroke="rgb(202,236,255)" stroke-opacity="0.502">
        <rect x="81.9988" y="325.9727" width="357.0024" rx="4" ry="4" height="215.2578" stroke="none"/>
      </g>
      <g>
        <g fill="rgb(153,204,255)" text-rendering="geometricPrecision" shape-rendering="geometricPrecision" transform="matrix(1,0,0,1,157,290)" stroke="rgb(153,204,255)">
          <rect x="81.9988" width="357.0024" height="24.9531" y="325.9727" stroke="none"/>
        </g>
        <g font-size="18px" stroke-linecap="butt" transform="matrix(1,0,0,1,157,290)" text-rendering="geometricPrecision" font-family="sans-serif" shape-rendering="geometricPrecision" stroke-miterlimit="1.45">
          <text x="355.9309" xml:space="preserve" y="344.6807" stroke="none">Common</text>
        </g>
      </g>
      <g stroke-linecap="round" transform="matrix(1,0,0,1,157,290)" stroke-dashoffset="2" fill="rgb(102,102,153)" text-rendering="geometricPrecision" shape-rendering="geometricPrecision" stroke-dasharray="0,4" stroke="rgb(102,102,153)" stroke-miterlimit="1.45">
        <rect x="81.9988" y="325.9727" fill="none" width="357.0024" rx="4" ry="4" height="215.2578"/>
      </g>
    </g>
    <g id="y.node.14">
      <a target="_blank" xlink:type="simple" xlink:href="https://github.com/Talend/data-prep/tree/master/dataprep-backend-common/src/main/java/org/talend/dataprep/transformation/api/action" xlink:show="new">
        <g fill="rgb(225,225,225)" text-rendering="geometricPrecision" shape-rendering="geometricPrecision" transform="matrix(1,0,0,1,157,290)" stroke="rgb(225,225,225)">
          <rect x="105.0012" y="462.5313" width="150" rx="4" ry="4" height="68.9219" stroke="none"/>
        </g>
        <g>
          <g fill="rgb(235,235,235)" text-rendering="geometricPrecision" shape-rendering="geometricPrecision" transform="matrix(1,0,0,1,157,290)" stroke="rgb(235,235,235)">
            <rect x="105.0012" width="150" height="21.4609" y="462.5313" stroke="none"/>
          </g>
          <g font-size="15px" stroke-linecap="butt" transform="matrix(1,0,0,1,157,290)" text-rendering="geometricPrecision" font-family="sans-serif" shape-rendering="geometricPrecision" stroke-miterlimit="1.45">
            <text x="137.9963" xml:space="preserve" y="478.4546" stroke="none">Transformation</text>
          </g>
        </g>
        <g>
          <g text-rendering="geometricPrecision" stroke-miterlimit="1.45" shape-rendering="geometricPrecision" font-family="sans-serif" transform="matrix(1,0,0,1,157,290)" stroke-linecap="butt">
            <text x="157.2815" xml:space="preserve" y="494.6855" stroke="none">context</text>
            <text x="145.1995" xml:space="preserve" y="508.6543" stroke="none">parameters</text>
            <text x="150.9211" xml:space="preserve" y="522.623" stroke="none">metadata</text>
          </g>
        </g>
        <g text-rendering="geometricPrecision" stroke-miterlimit="1.45" stroke-dasharray="6,2" shape-rendering="geometricPrecision" transform="matrix(1,0,0,1,157,290)" stroke-linecap="butt">
          <rect x="105.0012" y="462.5313" fill="none" width="150" rx="4" ry="4" height="68.9219"/>
        </g>
      </a>
    </g>
    <g id="y.node.15">
      <a target="_blank" xlink:type="simple" xlink:href="https://github.com/Talend/data-prep/tree/master/dataprep-backend-common/src/main/java/org/talend/dataprep/api" xlink:show="new">
        <g fill="rgb(225,225,225)" text-rendering="geometricPrecision" shape-rendering="geometricPrecision" transform="matrix(1,0,0,1,157,290)" stroke="rgb(225,225,225)">
          <rect x="98.0012" y="362.2969" width="80" rx="4" ry="4" height="86" stroke="none"/>
        </g>
        <g>
          <g fill="rgb(235,235,235)" text-rendering="geometricPrecision" shape-rendering="geometricPrecision" transform="matrix(1,0,0,1,157,290)" stroke="rgb(235,235,235)">
            <rect x="98.0012" width="80" height="21.4609" y="362.2969" stroke="none"/>
          </g>
          <g font-size="15px" stroke-linecap="butt" transform="matrix(1,0,0,1,157,290)" text-rendering="geometricPrecision" font-family="sans-serif" shape-rendering="geometricPrecision" stroke-miterlimit="1.45">
            <text x="152.2708" xml:space="preserve" y="378.2202" stroke="none">API</text>
          </g>
        </g>
        <g>
          <g text-rendering="geometricPrecision" stroke-miterlimit="1.45" shape-rendering="geometricPrecision" font-family="sans-serif" transform="matrix(1,0,0,1,157,290)" stroke-linecap="butt">
            <text x="115.3167" xml:space="preserve" y="405.3978" stroke="none">dataset</text>
            <text x="102.9124" xml:space="preserve" y="419.3665" stroke="none">preparation</text>
            <text x="124.5979" xml:space="preserve" y="433.3353" stroke="none">type</text>
          </g>
        </g>
        <g text-rendering="geometricPrecision" stroke-miterlimit="1.45" stroke-dasharray="6,2" shape-rendering="geometricPrecision" transform="matrix(1,0,0,1,157,290)" stroke-linecap="butt">
          <rect x="98.0012" y="362.2969" fill="none" width="80" rx="4" ry="4" height="86"/>
        </g>
      </a>
    </g>
    <g id="y.node.16">
      <a target="_blank" xlink:type="simple" xlink:href="https://github.com/Talend/data-prep/tree/master/dataprep-backend-common/src/main/java/org/talend/dataprep/i18n" xlink:show="new">
        <g fill="rgb(225,225,225)" text-rendering="geometricPrecision" shape-rendering="geometricPrecision" transform="matrix(1,0,0,1,157,290)" stroke="rgb(225,225,225)">
          <rect x="285.0012" y="462.5313" width="64" rx="4" ry="4" height="31.4609" stroke="none"/>
        </g>
        <g>
          <g fill="rgb(235,235,235)" text-rendering="geometricPrecision" shape-rendering="geometricPrecision" transform="matrix(1,0,0,1,157,290)" stroke="rgb(235,235,235)">
            <rect x="285.0012" width="64" height="21.4609" y="462.5313" stroke="none"/>
          </g>
          <g font-size="15px" stroke-linecap="butt" transform="matrix(1,0,0,1,157,290)" text-rendering="geometricPrecision" font-family="sans-serif" shape-rendering="geometricPrecision" stroke-miterlimit="1.45">
            <text x="312.2698" xml:space="preserve" y="478.4546" stroke="none">I18N</text>
          </g>
        </g>
        <g/>
        <g text-rendering="geometricPrecision" stroke-miterlimit="1.45" stroke-dasharray="6,2" shape-rendering="geometricPrecision" transform="matrix(1,0,0,1,157,290)" stroke-linecap="butt">
          <rect x="285.0012" y="462.5313" fill="none" width="64" rx="4" ry="4" height="31.4609"/>
        </g>
      </a>
    </g>
    <g id="y.node.17">
      <a target="_blank" xlink:type="simple" xlink:href="https://github.com/Talend/data-prep/tree/master/dataprep-backend-common/src/main/java/org/talend/dataprep/exception" xlink:show="new">
        <g fill="rgb(225,225,225)" text-rendering="geometricPrecision" shape-rendering="geometricPrecision" transform="matrix(1,0,0,1,157,290)" stroke="rgb(225,225,225)">
          <rect x="198.0012" y="362.2969" width="110" rx="4" ry="4" height="57.4609" stroke="none"/>
        </g>
        <g>
          <g fill="rgb(235,235,235)" text-rendering="geometricPrecision" shape-rendering="geometricPrecision" transform="matrix(1,0,0,1,157,290)" stroke="rgb(235,235,235)">
            <rect x="198.0012" width="110" height="21.4609" y="362.2969" stroke="none"/>
          </g>
          <g font-size="15px" stroke-linecap="butt" transform="matrix(1,0,0,1,157,290)" text-rendering="geometricPrecision" font-family="sans-serif" shape-rendering="geometricPrecision" stroke-miterlimit="1.45">
            <text x="231.9167" xml:space="preserve" y="378.2202" stroke="none">Exception</text>
          </g>
        </g>
        <g>
          <g text-rendering="geometricPrecision" stroke-miterlimit="1.45" shape-rendering="geometricPrecision" font-family="sans-serif" transform="matrix(1,0,0,1,157,290)" stroke-linecap="butt">
            <text x="211.4641" xml:space="preserve" y="396.959" stroke="none">TDPException</text>
            <text x="219.6526" xml:space="preserve" y="410.9277" stroke="none">ErrorCodes</text>
          </g>
        </g>
        <g text-rendering="geometricPrecision" stroke-miterlimit="1.45" stroke-dasharray="6,2" shape-rendering="geometricPrecision" transform="matrix(1,0,0,1,157,290)" stroke-linecap="butt">
          <rect x="198.0012" y="362.2969" fill="none" width="110" rx="4" ry="4" height="57.4609"/>
        </g>
      </a>
    </g>
    <g id="y.node.18">
      <a target="_blank" xlink:type="simple" xlink:href="https://github.com/Talend/data-prep/tree/master/dataprep-backend-common/src/main/java/org/talend/dataprep/schema" xlink:show="new">
        <g fill="rgb(225,225,225)" text-rendering="geometricPrecision" shape-rendering="geometricPrecision" transform="matrix(1,0,0,1,157,290)" stroke="rgb(225,225,225)">
          <rect x="328.0012" y="362.2969" width="88" rx="4" ry="4" height="68.9219" stroke="none"/>
        </g>
        <g>
          <g fill="rgb(235,235,235)" text-rendering="geometricPrecision" shape-rendering="geometricPrecision" transform="matrix(1,0,0,1,157,290)" stroke="rgb(235,235,235)">
            <rect x="328.0012" width="88" height="21.4609" y="362.2969" stroke="none"/>
          </g>
          <g font-size="15px" stroke-linecap="butt" transform="matrix(1,0,0,1,157,290)" text-rendering="geometricPrecision" font-family="sans-serif" shape-rendering="geometricPrecision" stroke-miterlimit="1.45">
            <text x="353.6936" xml:space="preserve" y="378.2202" stroke="none">Schema</text>
          </g>
        </g>
        <g>
          <g text-rendering="geometricPrecision" stroke-miterlimit="1.45" shape-rendering="geometricPrecision" font-family="sans-serif" transform="matrix(1,0,0,1,157,290)" stroke-linecap="butt">
            <text x="359.8987" xml:space="preserve" y="394.4512" stroke="none">CSV</text>
            <text x="363.0979" xml:space="preserve" y="408.4199" stroke="none">Xls</text>
            <text x="355.3108" xml:space="preserve" y="422.3887" stroke="none">NoOp</text>
          </g>
        </g>
        <g text-rendering="geometricPrecision" stroke-miterlimit="1.45" stroke-dasharray="6,2" shape-rendering="geometricPrecision" transform="matrix(1,0,0,1,157,290)" stroke-linecap="butt">
          <rect x="328.0012" y="362.2969" fill="none" width="88" rx="4" ry="4" height="68.9219"/>
        </g>
      </a>
    </g>
    <g id="y.node.2">
      <g transform="matrix(1,0,0,1,157,290)" fill-opacity="0.502" fill="rgb(202,236,255)" text-rendering="geometricPrecision" shape-rendering="geometricPrecision" stroke="rgb(202,236,255)" stroke-opacity="0.502">
        <rect x="154" y="62.0547" width="220.5" rx="4" ry="4" height="131.0703" stroke="none"/>
      </g>
      <g>
        <g fill="rgb(153,204,255)" text-rendering="geometricPrecision" shape-rendering="geometricPrecision" transform="matrix(1,0,0,1,157,290)" stroke="rgb(153,204,255)">
          <rect x="154" width="220.5" height="24.9531" y="62.0547" stroke="none"/>
        </g>
        <g font-size="18px" stroke-linecap="butt" transform="matrix(1,0,0,1,157,290)" text-rendering="geometricPrecision" font-family="sans-serif" shape-rendering="geometricPrecision" stroke-miterlimit="1.45">
          <text x="267.8047" xml:space="preserve" y="80.7627" stroke="none">Preparation</text>
        </g>
      </g>
      <g stroke-linecap="round" transform="matrix(1,0,0,1,157,290)" stroke-dashoffset="2" fill="rgb(102,102,153)" text-rendering="geometricPrecision" shape-rendering="geometricPrecision" stroke-dasharray="0,4" stroke="rgb(102,102,153)" stroke-miterlimit="1.45">
        <rect x="154" y="62.0547" fill="none" width="220.5" rx="4" ry="4" height="131.0703"/>
      </g>
    </g>
    <g id="y.node.8">
      <a target="_blank" xlink:type="simple" xlink:href="https://github.com/Talend/data-prep/tree/master/dataprep-preparation/src/main/java/org/talend/dataprep/preparation/service" xlink:show="new">
        <g fill="rgb(225,225,225)" text-rendering="geometricPrecision" shape-rendering="geometricPrecision" transform="matrix(1,0,0,1,157,290)" stroke="rgb(225,225,225)">
          <rect x="216.5" y="92.0078" width="88" rx="4" ry="4" height="26" stroke="none"/>
        </g>
        <g>
          <g fill="rgb(235,235,235)" text-rendering="geometricPrecision" shape-rendering="geometricPrecision" transform="matrix(1,0,0,1,157,290)" stroke="rgb(235,235,235)">
            <rect x="216.5" width="88" height="21.4609" y="92.0078" stroke="none"/>
          </g>
          <g font-size="15px" stroke-linecap="butt" transform="matrix(1,0,0,1,157,290)" text-rendering="geometricPrecision" font-family="sans-serif" shape-rendering="geometricPrecision" stroke-miterlimit="1.45">
            <text x="247.063" xml:space="preserve" y="107.9312" stroke="none">Service</text>
          </g>
        </g>
        <g text-rendering="geometricPrecision" stroke-miterlimit="1.45" stroke-dasharray="6,2" shape-rendering="geometricPrecision" transform="matrix(1,0,0,1,157,290)" stroke-linecap="butt">
          <rect x="216.5" y="92.0078" fill="none" width="88" rx="4" ry="4" height="26"/>
        </g>
      </a>
    </g>
    <g id="y.node.9">
      <a target="_blank" xlink:type="simple" xlink:href="https://github.com/Talend/data-prep/tree/master/dataprep-preparation/src/main/java/org/talend/dataprep/preparation/api" xlink:show="new">
        <g fill="rgb(225,225,225)" text-rendering="geometricPrecision" shape-rendering="geometricPrecision" transform="matrix(1,0,0,1,157,290)" stroke="rgb(225,225,225)">
          <rect x="266" y="132.5391" width="88" rx="4" ry="4" height="48.4609" stroke="none"/>
        </g>
        <g>
          <g fill="rgb(235,235,235)" text-rendering="geometricPrecision" shape-rendering="geometricPrecision" transform="matrix(1,0,0,1,157,290)" stroke="rgb(235,235,235)">
            <rect x="266" width="88" height="21.4609" y="132.5391" stroke="none"/>
          </g>
          <g font-size="15px" stroke-linecap="butt" transform="matrix(1,0,0,1,157,290)" text-rendering="geometricPrecision" font-family="sans-serif" shape-rendering="geometricPrecision" stroke-miterlimit="1.45">
            <text x="328.2695" xml:space="preserve" y="148.4624" stroke="none">APÏ</text>
          </g>
        </g>
        <g/>
        <g>
          <g text-rendering="geometricPrecision" stroke-miterlimit="1.45" shape-rendering="geometricPrecision" font-family="sans-serif" transform="matrix(1,0,0,1,157,290)" stroke-linecap="butt">
            <text x="277.123" xml:space="preserve" y="172.1699" stroke="none">AppenStep</text>
          </g>
        </g>
        <g text-rendering="geometricPrecision" stroke-miterlimit="1.45" stroke-dasharray="6,2" shape-rendering="geometricPrecision" transform="matrix(1,0,0,1,157,290)" stroke-linecap="butt">
          <rect x="266" y="132.5391" fill="none" width="88" rx="4" ry="4" height="48.4609"/>
        </g>
      </a>
    </g>
    <g id="y.node.10">
      <a target="_blank" xlink:type="simple" xlink:href="https://github.com/Talend/data-prep/tree/master/dataprep-preparation/src/main/java/org/talend/dataprep/preparation/store/mongo" xlink:show="new">
        <g fill="rgb(225,225,225)" text-rendering="geometricPrecision" shape-rendering="geometricPrecision" transform="matrix(1,0,0,1,157,290)" stroke="rgb(225,225,225)">
          <rect x="159" y="132.5391" width="88" rx="4" ry="4" height="48.4609" stroke="none"/>
        </g>
        <g>
          <g fill="rgb(235,235,235)" text-rendering="geometricPrecision" shape-rendering="geometricPrecision" transform="matrix(1,0,0,1,157,290)" stroke="rgb(235,235,235)">
            <rect x="159" width="88" height="21.4609" y="132.5391" stroke="none"/>
          </g>
          <g font-size="15px" stroke-linecap="butt" transform="matrix(1,0,0,1,157,290)" text-rendering="geometricPrecision" font-family="sans-serif" shape-rendering="geometricPrecision" stroke-miterlimit="1.45">
            <text x="205.0244" xml:space="preserve" y="148.4624" stroke="none">Store</text>
          </g>
        </g>
        <g/>
        <g>
          <g text-rendering="geometricPrecision" stroke-miterlimit="1.45" shape-rendering="geometricPrecision" font-family="sans-serif" transform="matrix(1,0,0,1,157,290)" stroke-linecap="butt">
            <text x="182.8701" xml:space="preserve" y="172.1699" stroke="none">Mongo</text>
          </g>
        </g>
        <g text-rendering="geometricPrecision" stroke-miterlimit="1.45" stroke-dasharray="6,2" shape-rendering="geometricPrecision" transform="matrix(1,0,0,1,157,290)" stroke-linecap="butt">
          <rect x="159" y="132.5391" fill="none" width="88" rx="4" ry="4" height="48.4609"/>
        </g>
      </a>
    </g>
    <g id="y.node.3">
      <g transform="matrix(1,0,0,1,157,290)" fill-opacity="0.502" fill="rgb(202,236,255)" text-rendering="geometricPrecision" shape-rendering="geometricPrecision" stroke="rgb(202,236,255)" stroke-opacity="0.502">
        <rect x="404.5" y="62.0547" width="265.2556" rx="4" ry="4" height="201.8672" stroke="none"/>
      </g>
      <g>
        <g fill="rgb(153,204,255)" text-rendering="geometricPrecision" shape-rendering="geometricPrecision" transform="matrix(1,0,0,1,157,290)" stroke="rgb(153,204,255)">
          <rect x="404.5" width="265.2556" height="24.9531" y="62.0547" stroke="none"/>
        </g>
        <g font-size="18px" stroke-linecap="butt" transform="matrix(1,0,0,1,157,290)" text-rendering="geometricPrecision" font-family="sans-serif" shape-rendering="geometricPrecision" stroke-miterlimit="1.45">
          <text x="529.7498" xml:space="preserve" y="80.7627" stroke="none">Transformation</text>
        </g>
      </g>
      <g stroke-linecap="round" transform="matrix(1,0,0,1,157,290)" stroke-dashoffset="2" fill="rgb(102,102,153)" text-rendering="geometricPrecision" shape-rendering="geometricPrecision" stroke-dasharray="0,4" stroke="rgb(102,102,153)" stroke-miterlimit="1.45">
        <rect x="404.5" y="62.0547" fill="none" width="265.2556" rx="4" ry="4" height="201.8672"/>
      </g>
    </g>
    <g id="y.node.5">
      <a target="_blank" xlink:type="simple" xlink:href="https://github.com/Talend/data-prep/tree/master/dataprep-transformation/src/main/java/org/talend/dataprep/transformation/api/transformer" xlink:show="new">
        <g fill="rgb(225,225,225)" text-rendering="geometricPrecision" shape-rendering="geometricPrecision" transform="matrix(1,0,0,1,157,290)" stroke="rgb(225,225,225)">
          <rect x="541" y="164.9219" width="118.5" rx="4" ry="4" height="85.2273" stroke="none"/>
        </g>
        <g>
          <g fill="rgb(235,235,235)" text-rendering="geometricPrecision" shape-rendering="geometricPrecision" transform="matrix(1,0,0,1,157,290)" stroke="rgb(235,235,235)">
            <rect x="541" width="118.5" height="21.4609" y="164.9219" stroke="none"/>
          </g>
          <g font-size="15px" stroke-linecap="butt" transform="matrix(1,0,0,1,157,290)" text-rendering="geometricPrecision" font-family="sans-serif" shape-rendering="geometricPrecision" stroke-miterlimit="1.45">
            <text x="565.0244" xml:space="preserve" y="180.8452" stroke="none">Transformer</text>
          </g>
        </g>
        <g/>
        <g>
          <g text-rendering="geometricPrecision" stroke-miterlimit="1.45" shape-rendering="geometricPrecision" font-family="sans-serif" transform="matrix(1,0,0,1,157,290)" stroke-linecap="butt">
            <text x="582.9323" xml:space="preserve" y="199.4129" stroke="none">json</text>
            <text x="585.2233" xml:space="preserve" y="213.3816" stroke="none">csv</text>
            <text x="586.8552" xml:space="preserve" y="227.3504" stroke="none">xls</text>
            <text x="572.5231" xml:space="preserve" y="241.3191" stroke="none">tableau</text>
          </g>
        </g>
        <g text-rendering="geometricPrecision" stroke-miterlimit="1.45" stroke-dasharray="6,2" shape-rendering="geometricPrecision" transform="matrix(1,0,0,1,157,290)" stroke-linecap="butt">
          <rect x="541" y="164.9219" fill="none" width="118.5" rx="4" ry="4" height="85.2273"/>
        </g>
      </a>
    </g>
    <g onmouseout="HideTooltip(evt)" id="y.node.6" onmousemove="ShowTooltip(evt)">
      <a target="_blank" xlink:type="simple" xlink:href="https://github.com/Talend/data-prep/tree/master/dataprep-transformation/lib/tde/lib64" xlink:show="new">
        <g fill="rgb(225,225,225)" text-rendering="geometricPrecision" shape-rendering="geometricPrecision" transform="matrix(1,0,0,1,157,290)" stroke="rgb(225,225,225)">
          <rect x="427.0988" y="164.9219" width="97" rx="4" ry="4" height="50" stroke="none"/>
        </g>
        <g>
          <g fill="rgb(235,235,235)" text-rendering="geometricPrecision" shape-rendering="geometricPrecision" transform="matrix(1,0,0,1,157,290)" stroke="rgb(235,235,235)">
            <rect x="427.0988" width="97" height="21.4609" y="164.9219" stroke="none"/>
          </g>
          <g font-size="15px" stroke-linecap="butt" transform="matrix(1,0,0,1,157,290)" text-rendering="geometricPrecision" font-family="sans-serif" shape-rendering="geometricPrecision" stroke-miterlimit="1.45">
            <text x="462.1281" xml:space="preserve" y="180.8452" stroke="none">Tableau</text>
          </g>
        </g>
        <g/>
        <g>
          <g text-rendering="geometricPrecision" stroke-miterlimit="1.45" shape-rendering="geometricPrecision" font-family="sans-serif" transform="matrix(1,0,0,1,157,290)" stroke-linecap="butt">
            <text x="454.0421" xml:space="preserve" y="206.0918" stroke="none">tde*.so</text>
          </g>
        </g>
        <g text-rendering="geometricPrecision" stroke-miterlimit="1.45" stroke-dasharray="6,2" shape-rendering="geometricPrecision" transform="matrix(1,0,0,1,157,290)" stroke-linecap="butt">
          <rect x="427.0988" y="164.9219" fill="none" width="97" rx="4" ry="4" height="50"/>
        </g>
      </a>
    </g>
    <g id="y.node.7">
      <a target="_blank" xlink:type="simple" xlink:href="https://github.com/Talend/data-prep/tree/master/dataprep-transformation/src/main/java/org/talend/dataprep/transformation/service" xlink:show="new">
        <g fill="rgb(225,225,225)" text-rendering="geometricPrecision" shape-rendering="geometricPrecision" transform="matrix(1,0,0,1,157,290)" stroke="rgb(225,225,225)">
          <rect x="469.7994" y="102.1008" width="125.5" rx="4" ry="4" height="31.4609" stroke="none"/>
        </g>
        <g>
          <g fill="rgb(235,235,235)" text-rendering="geometricPrecision" shape-rendering="geometricPrecision" transform="matrix(1,0,0,1,157,290)" stroke="rgb(235,235,235)">
            <rect x="469.7994" width="125.5" height="21.4609" y="102.1008" stroke="none"/>
          </g>
          <g font-size="15px" stroke-linecap="butt" transform="matrix(1,0,0,1,157,290)" text-rendering="geometricPrecision" font-family="sans-serif" shape-rendering="geometricPrecision" stroke-miterlimit="1.45">
            <text x="537.8624" xml:space="preserve" y="118.0241" stroke="none">Service</text>
          </g>
        </g>
        <g/>
        <g text-rendering="geometricPrecision" stroke-miterlimit="1.45" stroke-dasharray="6,2" shape-rendering="geometricPrecision" transform="matrix(1,0,0,1,157,290)" stroke-linecap="butt">
          <rect x="469.7994" y="102.1008" fill="none" width="125.5" rx="4" ry="4" height="31.4609"/>
        </g>
      </a>
    </g>
    <g id="y.node.4">
      <a target="_blank" xlink:type="simple" xlink:href="https://github.com/Talend/data-prep/tree/master/dataprep-api" xlink:show="new">
        <g transform="matrix(1,0,0,1,157,290)" fill-opacity="0.502" fill="rgb(202,236,255)" text-rendering="geometricPrecision" shape-rendering="geometricPrecision" stroke="rgb(202,236,255)" stroke-opacity="0.502">
          <rect x="33.3503" y="-274.5555" width="461.7994" rx="4" ry="4" height="292.1023" stroke="none"/>
        </g>
        <g>
          <g fill="rgb(153,204,255)" text-rendering="geometricPrecision" shape-rendering="geometricPrecision" transform="matrix(1,0,0,1,157,290)" stroke="rgb(153,204,255)">
            <rect x="33.3503" width="461.7994" height="24.9531" y="-274.5555" stroke="none"/>
          </g>
          <g font-size="18px" stroke-linecap="butt" transform="matrix(1,0,0,1,157,290)" text-rendering="geometricPrecision" font-family="sans-serif" shape-rendering="geometricPrecision" stroke-miterlimit="1.45">
            <text x="464.6731" xml:space="preserve" y="-255.8475" stroke="none">API</text>
          </g>
        </g>
        <g stroke-linecap="round" transform="matrix(1,0,0,1,157,290)" stroke-dashoffset="2" fill="rgb(102,102,153)" text-rendering="geometricPrecision" shape-rendering="geometricPrecision" stroke-dasharray="0,4" stroke="rgb(102,102,153)" stroke-miterlimit="1.45">
          <rect x="33.3503" y="-274.5555" fill="none" width="461.7994" rx="4" ry="4" height="292.1023"/>
        </g>
      </a>
    </g>
    <g id="y.node.19">
      <a target="_blank" xlink:type="simple" xlink:href="https://github.com/Talend/data-prep/tree/master/dataprep-api/src/main/java/org/talend/dataprep/api/service/api" xlink:show="new">
        <g fill="rgb(225,225,225)" text-rendering="geometricPrecision" shape-rendering="geometricPrecision" transform="matrix(1,0,0,1,157,290)" stroke="rgb(225,225,225)">
          <rect x="47.1003" y="-108.3039" width="148.75" rx="4" ry="4" height="86" stroke="none"/>
        </g>
        <g>
          <g fill="rgb(235,235,235)" text-rendering="geometricPrecision" shape-rendering="geometricPrecision" transform="matrix(1,0,0,1,157,290)" stroke="rgb(235,235,235)">
            <rect x="47.1003" width="148.75" height="21.4609" y="-108.3039" stroke="none"/>
          </g>
          <g font-size="15px" stroke-linecap="butt" transform="matrix(1,0,0,1,157,290)" text-rendering="geometricPrecision" font-family="sans-serif" shape-rendering="geometricPrecision" stroke-miterlimit="1.45">
            <text x="170.1198" xml:space="preserve" y="-92.3806" stroke="none">API</text>
          </g>
        </g>
        <g/>
        <g>
          <g text-rendering="geometricPrecision" stroke-miterlimit="1.45" shape-rendering="geometricPrecision" font-family="sans-serif" transform="matrix(1,0,0,1,157,290)" stroke-linecap="butt">
            <text x="57.0691" xml:space="preserve" y="-73.0402" stroke="none">DynamicParamsInput</text>
            <text x="67.2234" xml:space="preserve" y="-59.0715" stroke="none">ExportParameters</text>
            <text x="71.8347" xml:space="preserve" y="-45.1027" stroke="none">PreviewDiffInput</text>
            <text x="60.6169" xml:space="preserve" y="-31.134" stroke="none">PreviewUpdateInput</text>
          </g>
        </g>
        <g text-rendering="geometricPrecision" stroke-miterlimit="1.45" stroke-dasharray="6,2" shape-rendering="geometricPrecision" transform="matrix(1,0,0,1,157,290)" stroke-linecap="butt">
          <rect x="47.1003" y="-108.3039" fill="none" width="148.75" rx="4" ry="4" height="86"/>
        </g>
      </a>
    </g>
    <g id="y.node.20">
      <a target="_blank" xlink:type="simple" xlink:href="https://github.com/Talend/data-prep/tree/master/dataprep-api/src/main/java/org/talend/dataprep/api/service" xlink:show="new">
        <g fill="rgb(225,225,225)" text-rendering="geometricPrecision" shape-rendering="geometricPrecision" transform="matrix(1,0,0,1,157,290)" stroke="rgb(225,225,225)">
          <rect x="223.6003" y="-237.1414" width="118.5" rx="4" ry="4" height="101.2273" stroke="none"/>
        </g>
        <g>
          <g fill="rgb(235,235,235)" text-rendering="geometricPrecision" shape-rendering="geometricPrecision" transform="matrix(1,0,0,1,157,290)" stroke="rgb(235,235,235)">
            <rect x="223.6003" width="118.5" height="21.4609" y="-237.1414" stroke="none"/>
          </g>
          <g font-size="15px" stroke-linecap="butt" transform="matrix(1,0,0,1,157,290)" text-rendering="geometricPrecision" font-family="sans-serif" shape-rendering="geometricPrecision" stroke-miterlimit="1.45">
            <text x="284.6633" xml:space="preserve" y="-221.2181" stroke="none">Service</text>
          </g>
        </g>
        <g/>
        <g>
          <g text-rendering="geometricPrecision" stroke-miterlimit="1.45" shape-rendering="geometricPrecision" font-family="sans-serif" transform="matrix(1,0,0,1,157,290)" stroke-linecap="butt">
            <text x="255.8269" xml:space="preserve" y="-200.6191" stroke="none">Common</text>
            <text x="258.6716" xml:space="preserve" y="-186.6504" stroke="none">DataSet</text>
            <text x="263.2097" xml:space="preserve" y="-172.6816" stroke="none">Export</text>
            <text x="247.9519" xml:space="preserve" y="-158.7129" stroke="none">Preparation</text>
            <text x="252.0183" xml:space="preserve" y="-144.7441" stroke="none">Transform</text>
          </g>
        </g>
        <g text-rendering="geometricPrecision" stroke-miterlimit="1.45" stroke-dasharray="6,2" shape-rendering="geometricPrecision" transform="matrix(1,0,0,1,157,290)" stroke-linecap="butt">
          <rect x="223.6003" y="-237.1414" fill="none" width="118.5" rx="4" ry="4" height="101.2273"/>
        </g>
      </a>
    </g>
    <g id="y.node.21">
      <a target="_blank" xlink:type="simple" xlink:href="https://github.com/Talend/data-prep/tree/master/dataprep-api/src/main/java/org/talend/dataprep/api/service/validation" xlink:show="new">
        <g fill="rgb(225,225,225)" text-rendering="geometricPrecision" shape-rendering="geometricPrecision" transform="matrix(1,0,0,1,157,290)" stroke="rgb(225,225,225)">
          <rect x="372.9491" y="-106.9141" width="108.625" rx="4" ry="4" height="26" stroke="none"/>
        </g>
        <g>
          <g fill="rgb(235,235,235)" text-rendering="geometricPrecision" shape-rendering="geometricPrecision" transform="matrix(1,0,0,1,157,290)" stroke="rgb(235,235,235)">
            <rect x="372.9491" width="108.625" height="21.4609" y="-106.9141" stroke="none"/>
          </g>
          <g font-size="15px" stroke-linecap="butt" transform="matrix(1,0,0,1,157,290)" text-rendering="geometricPrecision" font-family="sans-serif" shape-rendering="geometricPrecision" stroke-miterlimit="1.45">
            <text x="404.3397" xml:space="preserve" y="-90.9907" stroke="none">Validation</text>
          </g>
        </g>
        <g text-rendering="geometricPrecision" stroke-miterlimit="1.45" stroke-dasharray="6,2" shape-rendering="geometricPrecision" transform="matrix(1,0,0,1,157,290)" stroke-linecap="butt">
          <rect x="372.9491" y="-106.9141" fill="none" width="108.625" rx="4" ry="4" height="26"/>
        </g>
      </a>
    </g>
    <g id="y.node.22">
      <a target="_blank" xlink:type="simple" xlink:href="https://github.com/Talend/data-prep/tree/master/dataprep-api/src/main/java/org/talend/dataprep/api/service/command" xlink:show="new">
        <g fill="rgb(225,225,225)" text-rendering="geometricPrecision" shape-rendering="geometricPrecision" transform="matrix(1,0,0,1,157,290)" stroke="rgb(225,225,225)">
          <rect x="208.4753" y="-106.9141" width="148.75" rx="4" ry="4" height="113.4609" stroke="none"/>
        </g>
        <g>
          <g fill="rgb(235,235,235)" text-rendering="geometricPrecision" shape-rendering="geometricPrecision" transform="matrix(1,0,0,1,157,290)" stroke="rgb(235,235,235)">
            <rect x="208.4753" width="148.75" height="21.4609" y="-106.9141" stroke="none"/>
          </g>
          <g font-size="15px" stroke-linecap="butt" transform="matrix(1,0,0,1,157,290)" text-rendering="geometricPrecision" font-family="sans-serif" shape-rendering="geometricPrecision" stroke-miterlimit="1.45">
            <text x="278.1306" xml:space="preserve" y="-90.9907" stroke="none">Command</text>
          </g>
        </g>
        <g>
          <g text-rendering="geometricPrecision" stroke-miterlimit="1.45" shape-rendering="geometricPrecision" font-family="sans-serif" transform="matrix(1,0,0,1,157,290)" stroke-linecap="butt">
            <text x="256.7175" xml:space="preserve" y="-72.127" stroke="none">common</text>
            <text x="260.1657" xml:space="preserve" y="-58.1582" stroke="none">dataset</text>
            <text x="268.0876" xml:space="preserve" y="-44.1895" stroke="none">error</text>
            <text x="263.3093" xml:space="preserve" y="-30.2207" stroke="none">export</text>
            <text x="247.7614" xml:space="preserve" y="-16.252" stroke="none">preparation</text>
            <text x="238.1609" xml:space="preserve" y="-2.2832" stroke="none">transformation</text>
          </g>
        </g>
        <g text-rendering="geometricPrecision" stroke-miterlimit="1.45" stroke-dasharray="6,2" shape-rendering="geometricPrecision" transform="matrix(1,0,0,1,157,290)" stroke-linecap="butt">
          <rect x="208.4753" y="-106.9141" fill="none" width="148.75" rx="4" ry="4" height="113.4609"/>
        </g>
      </a>
    </g>
    <g visibility="hidden" id="tooltip.y.node.6" pointer-events="none">
      <g fill="rgb(195,212,232)" text-rendering="geometricPrecision" shape-rendering="geometricPrecision" font-family="sans-serif" stroke="rgb(195,212,232)">
        <rect x="0" width="116" height="17" y="0" clip-path="url(#clipPath2)" stroke="none"/>
        <text fill="black" x="4" xml:space="preserve" y="13" clip-path="url(#clipPath2)" stroke="none">Librairies tableau</text>
      </g>
      <g fill="rgb(49,106,196)" text-rendering="geometricPrecision" shape-rendering="geometricPrecision" font-family="sans-serif" stroke="rgb(49,106,196)">
        <path d="M0 0 L116 0 L116 17 L0 17 L0 0 ZM1 1 L115 1 L115 16 L1 16 L1 1 Z" fill-rule="evenodd" clip-path="url(#clipPath2)" stroke="none"/>
      </g>
    </g>
  </g>
</svg>
